<?xml version="1.0" encoding="utf-8"?>
<!-- Generator: Adobe Illustrator 23.0.3, SVG Export Plug-In . SVG Version: 6.00 Build 0)  -->
<svg version="1.1" id="Livello_1" xmlns="http://www.w3.org/2000/svg" xmlns:xlink="http://www.w3.org/1999/xlink" x="0px" y="0px"
	 viewBox="0 0 100 100" style="enable-background:new 0 0 100 100;" xml:space="preserve">
<style type="text/css">
	.st0{fill:#FEFCFB;}
	.st1{fill:#262626;}
</style>
<rect x="0" class="st0" width="99.9" height="99.9"/>
<g id="XMLID_40_">
	<g id="XMLID_47_">
		<path id="XMLID_50_" class="st1" d="M64.9,7.9C52.3,7.9,42,18.3,42,31.1v43.3h8.6V31.1c0-8,6.4-14.4,14.2-14.4
			c7.8,0,14.2,6.5,14.2,14.4c0,8-6.4,14.4-14.2,14.4h-5.6v8.8h5.6c12.6,0,22.8-10.4,22.8-23.2C87.7,18.3,77.5,7.9,64.9,7.9z"/>
		<path id="XMLID_51_" class="st1" d="M35,83.2c-7.8,0-14.2-6.5-14.2-14.4c0-7.4,5.5-13.5,12.6-14.3v-8.8
			c-11.8,0.9-21.2,10.9-21.2,23.1C12.2,81.6,22.4,92,35,92h15.6v-8.8H35z"/>
	</g>
</g>
</svg>
