<?xml version="1.0" encoding="utf-8"?>
<!-- Generator: Adobe Illustrator 23.0.3, SVG Export Plug-In . SVG Version: 6.00 Build 0)  -->
<svg version="1.1" id="Capa_1" xmlns="http://www.w3.org/2000/svg" xmlns:xlink="http://www.w3.org/1999/xlink" x="0px" y="0px"
	 viewBox="0 0 148.5 148.5" style="enable-background:new 0 0 148.5 148.5;" xml:space="preserve">
<style type="text/css">
	.st0{fill:#FE7F2D;}
</style>
<g>
	<g>
		<polygon class="st0" points="25.7,55.8 37.7,55.8 39.5,111.4 24.1,111.4 		"/>
		<polygon class="st0" points="15.4,114.4 133.1,114.4 133.1,120.7 142.2,120.7 142.2,129.8 148.5,129.8 148.5,136.1 0,136.1 
			0,129.8 6.3,129.8 6.3,120.7 15.4,120.7 		"/>
		<polygon class="st0" points="139.1,39.5 74.3,12.4 9.4,39.5 9.4,43.5 139.1,43.5 		"/>
		<rect x="21.7" y="46.5" class="st0" width="105" height="6"/>
		<polygon class="st0" points="110.5,55.8 122.5,55.8 124.4,111.4 109,111.4 		"/>
		<polygon class="st0" points="82.1,55.8 94.5,55.8 96.3,111.4 80.6,111.4 		"/>
		<polygon class="st0" points="54,55.8 66.1,55.8 67.9,111.4 52.2,111.4 		"/>
	</g>
</g>
</svg>
