<?xml version="1.0" encoding="utf-8"?>
<!-- Generator: Adobe Illustrator 23.0.3, SVG Export Plug-In . SVG Version: 6.00 Build 0)  -->
<svg version="1.1" id="Layer_1" xmlns="http://www.w3.org/2000/svg" xmlns:xlink="http://www.w3.org/1999/xlink" x="0px" y="0px"
	 viewBox="0 0 512 512" style="enable-background:new 0 0 512 512;" xml:space="preserve">
<style type="text/css">
	.st0{fill:#FEFCFB;}
</style>
<g>
	<g>
		<path class="st0" d="M501.4,223.9H448c-5.9,0-10.7,4.8-10.7,10.7c0,5.9,4.8,10.7,10.7,10.7h53.3c5.9,0,10.7-4.8,10.7-10.7
			C512,228.7,507.2,223.9,501.4,223.9z"/>
	</g>
</g>
<g>
	<g>
		<path class="st0" d="M501.4,159.9c-1.4,0-2.7,0.3-4,0.8v0l-0.2,0.1c0,0,0,0,0,0L444.1,182v0c-3.9,1.6-6.7,5.4-6.7,9.9
			c0,5.9,4.8,10.7,10.7,10.7c1.4,0,2.7-0.3,4-0.8l0.2-0.1c0,0,0,0,0,0l53.1-21.2v0c3.9-1.6,6.7-5.4,6.7-9.9
			C512,164.7,507.2,159.9,501.4,159.9z"/>
	</g>
</g>
<g>
	<g>
		<path class="st0" d="M394.7,178.1V85.2c0-5.9-4.8-10.7-10.7-10.7c-5.9,0-10.7,4.8-10.7,10.7v6.4l-192,57.6H64
			c-5.9,0-10.7,4.8-10.7,10.7v21.3h-32c-5.9,0-10.7,4.8-10.7,10.7v21.3C4.8,213.2,0,218,0,223.9v21.3c0,5.9,4.8,10.7,10.7,10.7v21.3
			c0,5.9,4.8,10.7,10.7,10.7h32v21.3c0,5.9,4.8,10.7,10.7,10.7h15.1l27.6,117.6h96l-26.6-76.4c3.2-1.8,5.3-5.2,5.3-9.2
			c0-3.7-1.9-7-4.8-8.9l10.4-21.4l186.4,55.9v6.4c0,5.9,4.8,10.7,10.7,10.7c5.9,0,10.7-4.8,10.7-10.7V289c19.1-11.1,32-31.7,32-55.4
			C426.7,209.9,413.8,189.2,394.7,178.1z M53.3,266.5H32v-64h21.3V266.5z M123.6,416.1L123.6,416.1L101,319.9h63l-10.6,21.9l-3.9,8
			l2.9,8.3l20.2,58L123.6,416.1L123.6,416.1z M181.3,298.5H74.7v-128h106.7V298.5z M373.3,355.2L202.7,304v-15l0.2-0.4h-0.2V165.1
			l170.7-51.2V355.2z M394.7,261.7v-56.4c6.6,7.5,10.7,17.4,10.7,28.2C405.4,244.3,401.3,254.2,394.7,261.7z"/>
	</g>
</g>
<g>
	<g>
		<path class="st0" d="M505.3,288.7l-53.1-21.3c0,0,0,0,0,0l-0.2-0.1v0c-1.2-0.5-2.6-0.8-4-0.8c-5.9,0-10.7,4.8-10.7,10.7
			c0,4.5,2.8,8.3,6.7,9.9l53.1,21.3c0,0,0,0,0,0l0.2,0.1v0c1.2,0.5,2.6,0.8,4,0.8c5.9,0,10.7-4.8,10.7-10.7
			C512,294.1,509.2,290.2,505.3,288.7z"/>
	</g>
</g>
</svg>
