<?xml version="1.0" encoding="utf-8"?>
<!-- Generator: Adobe Illustrator 23.0.3, SVG Export Plug-In . SVG Version: 6.00 Build 0)  -->
<svg version="1.1" id="Layer_1" xmlns="http://www.w3.org/2000/svg" xmlns:xlink="http://www.w3.org/1999/xlink" x="0px" y="0px"
	 viewBox="0 0 512 512" style="enable-background:new 0 0 512 512;" xml:space="preserve">
<style type="text/css">
	.st0{fill:#FEFCFB;}
</style>
<g>
	<g>
		<path class="st0" d="M190.2,202.5c-2.9-4.7-9.1-6.1-13.8-3.2l-43.2,27.1c-4.7,2.9-6.1,9.1-3.2,13.8c1.9,3,5.2,4.7,8.5,4.7
			c1.8,0,3.7-0.5,5.3-1.5l43.2-27.1C191.7,213.3,193.1,207.2,190.2,202.5z"/>
	</g>
</g>
<g>
	<g>
		<path class="st0" d="M122.7,244.9c-2.9-4.7-9.1-6.1-13.8-3.2l-0.2,0.1c-4.7,2.9-6.1,9.1-3.2,13.8c1.9,3,5.2,4.7,8.5,4.7
			c1.8,0,3.6-0.5,5.3-1.5l0.2-0.1C124.2,255.8,125.6,249.6,122.7,244.9z"/>
	</g>
</g>
<g>
	<g>
		<path class="st0" d="M510.3,4.4c-2.8-4.2-8.3-5.6-12.8-3.4l-296,148.6c-3.3,1.7-5.5,5.1-5.5,8.8c0,3.7,2,7.2,5.3,8.9l58.3,31
			l-133,83.5c-3,1.9-4.8,5.3-4.7,8.8c0.1,3.6,2.1,6.8,5.3,8.5l64.8,34.4L3.5,494.4c-3.9,3.3-4.7,9.1-1.7,13.3c1.9,2.8,5,4.3,8.2,4.3
			c1.6,0,3.3-0.4,4.8-1.3l304-168.7c3.2-1.8,5.2-5.2,5.1-8.8c0-3.7-2.1-7-5.3-8.7L259.4,293l138.2-88.9c3-1.9,4.7-5.3,4.6-8.9
			c-0.2-3.6-2.2-6.8-5.4-8.4l-51.1-26.7L508.6,17.5C512.4,14.2,513.1,8.6,510.3,4.4z M321.5,154.7c-2.5,2.2-3.7,5.4-3.3,8.7
			c0.4,3.3,2.4,6.2,5.3,7.7l48.9,25.5l-138,88.9c-3,1.9-4.7,5.3-4.6,8.8c0.1,3.5,2.2,6.7,5.3,8.4l58,30.8L92.6,444.7l123.6-105.3
			c2.5-2.1,3.8-5.4,3.5-8.7c-0.4-3.3-2.3-6.2-5.2-7.7l-62.5-33.2l133-83.5c3-1.9,4.8-5.3,4.7-8.8c-0.1-3.6-2.1-6.8-5.3-8.5l-56.5-30
			L436.4,54.1L321.5,154.7z"/>
	</g>
</g>
<g>
	<g>
		<path class="st0" d="M379.3,347.4c-2.7-4.8-8.8-6.6-13.6-3.9l-0.2,0.1c-4.8,2.7-6.6,8.8-3.9,13.6c1.8,3.3,5.2,5.1,8.7,5.1
			c1.6,0,3.3-0.4,4.9-1.3l0.2-0.1C380.2,358.3,382,352.2,379.3,347.4z"/>
	</g>
</g>
<g>
	<g>
		<path class="st0" d="M354,361.5c-2.7-4.8-8.8-6.6-13.6-3.9l-44.6,24.8c-4.8,2.7-6.6,8.8-3.9,13.6c1.8,3.3,5.2,5.1,8.8,5.1
			c1.6,0,3.3-0.4,4.8-1.3l44.6-24.8C354.9,372.4,356.6,366.3,354,361.5z"/>
	</g>
</g>
</svg>
