<?xml version="1.0" encoding="utf-8"?>
<!-- Generator: Adobe Illustrator 23.0.3, SVG Export Plug-In . SVG Version: 6.00 Build 0)  -->
<svg version="1.1" id="Capa_1" xmlns="http://www.w3.org/2000/svg" xmlns:xlink="http://www.w3.org/1999/xlink" x="0px" y="0px"
	 viewBox="0 0 487.3 487.3" style="enable-background:new 0 0 487.3 487.3;" xml:space="preserve">
<style type="text/css">
	.st0{fill:#FEFCFB;}
</style>
<g>
	<g>
		<path class="st0" d="M347.7,0h-288c-30.9,0-56,25.1-56,56v287.3c0,30.9,25.1,56,56,56h88v-16h-88c-22.1,0-40-17.9-40-40V208H71
			c4.7-0.3,8.3-4.5,8-9.2c-0.1-0.9-0.3-1.8-0.6-2.7c-7.1-16.2,0.2-35.1,16.4-42.2s35.1,0.2,42.2,16.4c3.6,8.2,3.6,17.5,0,25.7
			c-2,4.1-0.2,9.1,3.9,11.1c1.1,0.5,2.2,0.8,3.4,0.8h51.4v48c-2.6-0.4-5.3-0.7-8-0.7c-26.5,0-48,21.5-48,48
			c0,19.1,11.3,36.4,28.8,44l6.4-14.7c-16.2-7-23.6-25.9-16.6-42.1c5.1-11.7,16.6-19.2,29.4-19.2c4.4,0,8.8,0.9,12.8,2.7
			c4,1.8,8.8-0.1,10.5-4.1c0.4-1,0.7-2.1,0.7-3.2V208h40.7c-0.5,2.6-0.7,5.3-0.7,8c0,22.8,16.1,42.4,38.4,47l3.2-15.7
			c-14.9-3.1-25.6-16.2-25.6-31.4c0-4.4,0.9-8.8,2.7-12.8c1.8-4-0.1-8.8-4.1-10.5c-1-0.4-2.1-0.7-3.2-0.7h-51.4v-40.7
			c2.6,0.5,5.3,0.7,8,0.7c26.5,0,48-21.5,48-48s-21.5-48-48-48c-2.7,0-5.4,0.2-8,0.7V16h136c22.1,0,40,17.9,40,40v136h-51.4
			c-4.4,0-8,3.6-8,8c0,1.1,0.2,2.2,0.7,3.2c1.8,4,2.7,8.4,2.7,12.8h16c0-2.7-0.2-5.4-0.7-8h48.7c4.4,0,8-3.6,8-8V56
			C403.6,25.1,378.6,0,347.7,0z M219.7,72c17.7,0,32,14.3,32,32s-14.3,32-32,32c-4.4,0-8.8-0.9-12.8-2.7c-4-1.8-8.8,0.1-10.5,4.1
			c-0.4,1-0.7,2.1-0.7,3.2v50.7H155c0.4-2.4,0.6-4.9,0.6-7.3c0-0.1,0-0.3,0-0.4s0-0.2,0-0.2c0-26.5-21.5-48-48-48s-48,21.5-48,48
			c0,0.1,0,0.2,0,0.2s0,0.3,0,0.4c0,2.5,0.2,4.9,0.6,7.3H19.7V56c0-22.1,17.9-40,40-40h136v51.4c0,4.4,3.6,8,8,8
			c1.1,0,2.2-0.2,3.2-0.7C210.9,72.9,215.2,72,219.7,72z"/>
	</g>
</g>
<g>
	<g>
		<path class="st0" d="M466.5,343.9l-67.3-46.3l-25.8-69c-1.5-4.1-6.1-6.2-10.3-4.7c-0.1,0.1-0.3,0.1-0.4,0.2l-52,23
			c-3.9,1.7-5.8,6.2-4.2,10.2c0.9,2.2,1.7,3.9,2.5,5.7s1.6,3.4,2.6,6c6.2,16.6-2.2,35.1-18.7,41.4c-16.6,6.2-35-2.2-41.2-18.8
			c-1.6-4.2-2.2-8.6-2-13c0.2-4.4-3.2-8.2-7.6-8.4c-1.1-0.1-2.2,0.1-3.2,0.5l-55.6,20.9c-4.1,1.6-6.2,6.2-4.7,10.3l20,53.3
			c-2.6,0.5-5.2,1.2-7.8,2.1c-24.9,9.3-37.6,37-28.3,61.9s37,37.6,61.9,28.3c2.6-1,5-2.1,7.4-3.5l14.3,38.2
			c1.6,4.1,6.2,6.2,10.3,4.7c0,0,0,0,0,0l79.3-29.9c5,10.7,14.1,18.9,25.3,22.6l5.1-15.2c-6.6-2.2-12.1-6.9-15.3-13.1l24.1-9.1
			c7.9,22.3,29,37.2,52.7,37.1v-16c-22-0.1-39.9-18-40-40c0-2.1-0.8-4.2-2.3-5.7l-27.9-27.9c-4.1-4.2-4.6-10.7-1.1-15.4
			c2-2.8,5.2-4.5,8.6-4.7c3.4-0.3,6.8,1,9.2,3.4L430,429l11.3-11.3l-16.5-16.5c4.1-12.2,3.8-25.4-0.7-37.4l-15-40l48.3,33.3
			c6.4,4.5,10.2,11.8,10.2,19.7V480h16V376.7C483.6,363.6,477.3,351.3,466.5,343.9z M409.1,369.4c2.2,5.9,3,12.2,2.3,18.4l-26-26
			c-10.7-11-28.3-11.2-39.3-0.5c-11,10.7-11.2,28.3-0.5,39.3c0.2,0.2,0.3,0.3,0.5,0.5l25.3,25.3L258.4,469l-15.2-40.7
			c-0.9-2.5-3.1-4.4-5.8-5c-0.6-0.1-1.2-0.2-1.7-0.2c-2.1,0-4.1,0.8-5.6,2.3c-12.8,12.1-33.1,11.6-45.2-1.3
			c-12.1-12.8-11.6-33.1,1.3-45.2c3-2.9,6.6-5.1,10.4-6.6c2.5-0.9,5.2-1.5,7.9-1.8c1.7-0.2,3.3-0.3,5-0.2c4.4,0.2,8.2-3.2,8.4-7.6
			c0.1-1.1-0.1-2.2-0.5-3.2l-20.9-55.8l38.1-14.3c5,26,30.2,43.1,56.2,38.1c2.7-0.5,5.3-1.2,7.8-2.2c24.8-9.4,37.3-37.1,28.1-62
			c-0.7-2-1.4-3.5-2-4.9l36.8-16.3L409.1,369.4z"/>
	</g>
</g>
</svg>
