<?xml version="1.0" encoding="utf-8"?>
<!-- Generator: Adobe Illustrator 23.0.3, SVG Export Plug-In . SVG Version: 6.00 Build 0)  -->
<svg version="1.1" id="Capa_1" xmlns="http://www.w3.org/2000/svg" xmlns:xlink="http://www.w3.org/1999/xlink" x="0px" y="0px"
	 viewBox="0 0 211.3 211.3" style="enable-background:new 0 0 211.3 211.3;" xml:space="preserve">
<style type="text/css">
	.st0{fill:#FEFCFB;}
</style>
<g>
	<g>
		<path class="st0" d="M171.6,78.1c-0.7-0.9-1.5-1.9-2.1-2.7c-6.6-8.5-9.9-17.9-12.9-26.3c-2.1-5.9-3.9-11.1-6.6-14.7
			c-7.2-10-34.4-14.1-40.3-13.9c-6.4,0.2-9.1,5.7-9.9,10.1c-1.9,0.5-4.5,1.7-6.7,4c-5.7,6,3.3,20.1,11.2,27.8
			c6.3,6.1,10.7,5.8,14.5,5.6c1.7-0.1,3.4-0.2,5.4,0.2c4.7,1.1,9.3,4.8,11.4,6.6c-1.8,32,3.5,47.7,5.8,54.6
			c-1.8-0.2-4.3-0.6-6.8-1.2c-13.8-25.5-42.3-22.2-51-20.5C71.3,88.6,50.2,82.3,34.2,82.8c-14.8,0.5-24.2-0.5-24.3-0.5
			c-1.6-0.2-3.1,0.8-3.6,2.3c-0.5,1.4-11.6,34.7,2,67.3c13.2,31.6,28.8,57.5,29,57.8c0.6,1.1,1.8,1.6,2.9,1.6c0.6,0,1.2-0.2,1.7-0.5
			c15.4-9.2,22-21.4,24.5-27.5c30.7,12,63.6,7.7,86.2,1.7c25.2-6.6,42.7-16.3,43.5-16.7c0.9-0.5,1.6-1.5,1.7-2.5
			C203.9,119.1,183.7,93.4,171.6,78.1z M191.2,163.2c-10.4,5.4-72.9,35.3-125.5,12.5c-0.9-0.4-2-0.4-2.9,0.1
			c-0.9,0.4-1.6,1.3-1.8,2.2c0,0.1-3.8,14.3-19.8,25.1c-4.4-7.6-16.4-28.9-26.7-53.9C4,124,9.8,97.4,12,89.3
			c3.9,0.3,11.8,0.6,22.4,0.3c14.6-0.5,34,5.5,44.7,23.6c0.8,1.3,2.4,2,3.9,1.6c0.3-0.1,33-9,46.3,17.9c0.4,0.9,1.3,1.5,2.2,1.8
			c13.6,3.4,15.6,1.2,16.5,0.1c1.7-1.9,1-4.1-0.1-7.4c-2.2-6.5-7.4-21.8-5.4-53.6c0.1-1-0.3-1.9-1-2.6c-0.3-0.3-7.5-7.6-15.8-9.5
			c-3-0.7-5.4-0.5-7.4-0.4c-3.3,0.2-5.2,0.3-9.3-3.7c-7.4-7.2-11.5-16.2-10.9-18.3c2.1-2.1,4.7-2.3,4.8-2.3c1.9,0,3.3-1.5,3.4-3.4
			c0-0.1,0.2-6.1,3.5-6.2c0.2,0,0.3,0,0.5,0c7.6,0,29.5,4.8,34.1,11.1c2.1,2.9,3.7,7.6,5.7,13c3,8.4,6.7,18.8,13.9,28.2
			c0.7,0.9,1.4,1.8,2.2,2.8C178.2,97.5,196.3,120.4,191.2,163.2z"/>
	</g>
</g>
<g>
	<g>
		<path class="st0" d="M181.5,1c-1.3-1.3-3.5-1.3-4.8,0l-20.5,20.5c-1.3,1.3-1.3,3.5,0,4.8c0.7,0.7,1.5,1,2.4,1s1.7-0.3,2.4-1
			l20.5-20.5C182.8,4.5,182.8,2.3,181.5,1z"/>
	</g>
</g>
<g>
	<g>
		<path class="st0" d="M206.1,29.5c-0.7-1.8-2.7-2.6-4.4-1.9l-34.1,13.7c-1.7,0.7-2.6,2.7-1.9,4.4c0.5,1.3,1.8,2.1,3.2,2.1
			c0.4,0,0.9-0.1,1.3-0.2l34.1-13.7C206,33.2,206.8,31.2,206.1,29.5z"/>
	</g>
</g>
<g>
	<g>
		<path class="st0" d="M209.8,61c-0.2-1.9-2-3.2-3.8-3l-27.3,3.4c-1.9,0.2-3.2,1.9-3,3.8c0.2,1.7,1.7,3,3.4,3c0.1,0,0.3,0,0.4,0
			l27.3-3.4C208.7,64.6,210,62.9,209.8,61z"/>
	</g>
</g>
<g>
	<g>
		<path class="st0" d="M137.6,155.2c-1-1.6-3.1-2.1-4.7-1.1c-24.8,15.5-60.4-16.4-60.8-16.7c-1.4-1.3-3.6-1.2-4.8,0.2
			c-1.3,1.4-1.2,3.6,0.2,4.8c0.4,0.4,9.9,8.9,23,15.5c9.6,4.8,18.7,7.2,27,7.2c7,0,13.4-1.8,19-5.3
			C138.1,158.9,138.6,156.8,137.6,155.2z"/>
	</g>
</g>
<g>
	<g>
		<path class="st0" d="M89.9,121.3l-8.8-17.1c-0.9-1.7-2.9-2.3-4.6-1.5s-2.3,2.9-1.5,4.6l8.8,17.1c0.6,1.2,1.8,1.9,3,1.9
			c0.5,0,1.1-0.1,1.6-0.4C90.1,125.1,90.8,123,89.9,121.3z"/>
	</g>
</g>
</svg>
