<?xml version="1.0" encoding="utf-8"?>
<!-- Generator: Adobe Illustrator 23.0.3, SVG Export Plug-In . SVG Version: 6.00 Build 0)  -->
<svg version="1.1" id="Livello_1" xmlns="http://www.w3.org/2000/svg" xmlns:xlink="http://www.w3.org/1999/xlink" x="0px" y="0px"
	 viewBox="0 0 24 24" style="enable-background:new 0 0 24 24;" xml:space="preserve">
<style type="text/css">
	.st0{fill:#FE7F2D;}
</style>
<path class="st0" d="M8.6,17.8c-0.9,2.5-3.7,4-6.6,4.2c0.1-2.8,1.7-5.6,4.2-6.6L6.7,16c-1.5,1.5-2.1,2.8-2.1,3.5
	c0.7-0.1,2-0.6,3.5-2.1L8.6,17.8z M7.4,6.5c-1.8,0-4.1,0.9-5.8,2.6C1,9.8,0.4,10.5,0,11.4c1.5-1.2,3.2-1.5,5.1-0.4
	C5.7,9.5,6.5,7.9,7.4,6.5z M12.6,24c0.9-0.4,1.6-1,2.3-1.7c1.7-1.7,2.6-4,2.6-5.8c-1.6,1-3.1,1.8-4.5,2.3
	C14.1,20.8,13.8,22.5,12.6,24z M23.9,0c-0.4,0-0.8,0-1.3,0C13.3,0,8.2,7.4,6.6,13l4.4,4.4c5.8-1.9,13-6.8,13-16V1.4
	C24,0.9,24,0.5,23.9,0z M18,8c-1.1,0-2-0.9-2-2s0.9-2,2-2s2,0.9,2,2S19.1,8,18,8z"/>
</svg>
